<svg width="109" height="28" viewBox="0 0 109 28" fill="none" xmlns="http://www.w3.org/2000/svg">
<path d="M9.27201 20.9361C8.01334 20.9361 6.91467 20.7334 5.97601 20.3281C5.05867 19.9014 4.30134 19.3361 3.70401 18.6321C3.10667 17.9067 2.65867 17.0747 2.36001 16.1361C2.08267 15.1974 1.94401 14.1947 1.94401 13.1281C1.94401 11.9547 2.12534 10.8667 2.48801 9.86406C2.87201 8.86139 3.40534 7.99739 4.08801 7.27206C4.77067 6.54672 5.59201 5.99206 6.55201 5.60806C7.51201 5.20272 8.56801 5.00006 9.72001 5.00006C10.808 5.02139 11.8107 5.20272 12.728 5.54406C13.6667 5.88539 14.4773 6.39739 15.16 7.08006C15.864 7.74139 16.408 8.57339 16.792 9.57606C17.176 10.5787 17.368 11.7521 17.368 13.0961C17.3893 14.1627 17.176 15.1761 16.728 16.1361C16.3013 17.0747 15.7147 17.9067 14.968 18.6321C14.2213 19.3361 13.3573 19.9014 12.376 20.3281C11.3947 20.7334 10.36 20.9361 9.27201 20.9361ZM2.45601 27.8161C2.09334 27.8161 1.79467 27.7521 1.56001 27.6241C1.34667 27.4961 1.17601 27.3361 1.04801 27.1441C0.920007 26.9521 0.834674 26.7921 0.792007 26.6641C0.74934 26.5361 0.728007 26.4721 0.728007 26.4721C0.642674 25.5547 0.568007 24.4241 0.504007 23.0801C0.440007 21.7574 0.39734 20.3387 0.376007 18.8241C0.376007 17.3094 0.376007 15.7841 0.376007 14.2481C0.39734 12.7121 0.440007 11.2614 0.504007 9.89606C0.568007 8.50939 0.642674 7.30406 0.728007 6.28006C0.728007 6.28006 0.738674 6.22672 0.760007 6.12006C0.802674 5.99206 0.866674 5.85339 0.952007 5.70406C1.05867 5.53339 1.21867 5.39472 1.43201 5.28806C1.64534 5.18139 1.92267 5.13872 2.26401 5.16006C2.62667 5.20272 2.90401 5.29872 3.09601 5.44806C3.30934 5.59739 3.46934 5.76806 3.57601 5.96006C3.68267 6.15206 3.74667 6.32272 3.76801 6.47206C3.81067 6.62139 3.83201 6.69606 3.83201 6.69606C3.76801 7.54939 3.71467 8.61606 3.67201 9.89606C3.62934 11.1547 3.59734 12.5307 3.57601 14.0241C3.57601 15.5174 3.58667 17.0321 3.60801 18.5681C3.62934 20.0827 3.65067 21.5334 3.67201 22.9201C3.71467 24.3281 3.76801 25.5547 3.83201 26.6001C3.83201 26.6001 3.82134 26.6641 3.80001 26.7921C3.77867 26.9201 3.72534 27.0587 3.64001 27.2081C3.55467 27.3574 3.41601 27.4961 3.22401 27.6241C3.03201 27.7521 2.77601 27.8161 2.45601 27.8161ZM9.01601 18.0561C9.69867 18.0561 10.3493 17.9067 10.968 17.6081C11.5867 17.2881 12.1307 16.8721 12.6 16.3601C13.0693 15.8481 13.432 15.2614 13.688 14.6001C13.9653 13.9174 14.104 13.2241 14.104 12.5201C14.104 11.3254 13.9013 10.3654 13.496 9.64006C13.0907 8.89339 12.5467 8.34939 11.864 8.00806C11.2027 7.66672 10.4773 7.49606 9.68801 7.49606C9.02667 7.49606 8.39734 7.65606 7.80001 7.97606C7.22401 8.29606 6.70134 8.73339 6.23201 9.28806C5.78401 9.84272 5.42134 10.4721 5.14401 11.1761C4.88801 11.8587 4.76001 12.5627 4.76001 13.2881C4.76001 14.1841 4.93067 14.9947 5.27201 15.7201C5.63467 16.4454 6.13601 17.0214 6.77601 17.4481C7.41601 17.8534 8.16267 18.0561 9.01601 18.0561Z" fill="#51A643"/>
<path d="M21.8935 21.0001C21.5308 21.0001 21.2322 20.9361 20.9975 20.8081C20.7842 20.6587 20.6135 20.4987 20.4855 20.3281C20.3575 20.1361 20.2615 19.9761 20.1975 19.8481C20.1548 19.7201 20.1335 19.6561 20.1335 19.6561C20.0482 18.7387 19.9735 17.6827 19.9095 16.4881C19.8668 15.2721 19.8348 14.0027 19.8135 12.6801C19.8135 11.3361 19.8242 9.99206 19.8455 8.64806C19.8668 7.30406 19.9095 6.00272 19.9735 4.74406C20.0375 3.48539 20.1122 2.33339 20.1975 1.28806C20.1975 1.28806 20.2082 1.23472 20.2295 1.12806C20.2722 1.00006 20.3362 0.86139 20.4215 0.712057C20.5282 0.562723 20.6882 0.434723 20.9015 0.328056C21.1148 0.22139 21.3922 0.18939 21.7335 0.232056C22.0962 0.25339 22.3842 0.338723 22.5975 0.488056C22.8108 0.63739 22.9602 0.808057 23.0455 1.00006C23.1522 1.19206 23.2162 1.36272 23.2375 1.51206C23.2802 1.66139 23.3015 1.73606 23.3015 1.73606C23.2375 2.56806 23.1842 3.56006 23.1415 4.71206C23.0988 5.86406 23.0668 7.10139 23.0455 8.42406C23.0455 9.72539 23.0455 11.0481 23.0455 12.3921C23.0455 13.7361 23.0562 15.0481 23.0775 16.3281C23.1202 17.5867 23.1735 18.7387 23.2375 19.7841C23.2375 19.7841 23.2268 19.8481 23.2055 19.9761C23.1842 20.0827 23.1308 20.2214 23.0455 20.3921C22.9602 20.5414 22.8215 20.6801 22.6295 20.8081C22.4588 20.9361 22.2135 21.0001 21.8935 21.0001Z" fill="#51A643"/>
<path d="M32.8313 20.9361C31.7433 20.9361 30.7406 20.7441 29.8233 20.3601C28.9273 19.9547 28.1486 19.4001 27.4873 18.6961C26.8259 17.9921 26.3139 17.1707 25.9513 16.2321C25.5886 15.2934 25.4073 14.2907 25.4073 13.2241C25.4073 12.0934 25.6099 11.0374 26.0153 10.0561C26.4419 9.05339 27.0073 8.17872 27.7113 7.43206C28.4366 6.66406 29.2686 6.07739 30.2073 5.67206C31.1673 5.24539 32.2019 5.02139 33.3113 5.00006C34.8686 5.00006 36.2126 5.28806 37.3433 5.86406C38.4739 6.41872 39.3379 7.29339 39.9353 8.48806C40.5539 9.66139 40.8633 11.1654 40.8633 13.0001C40.8633 14.0667 40.6713 15.0801 40.2873 16.0401C39.9246 16.9787 39.3913 17.8107 38.6873 18.5361C37.9833 19.2614 37.1406 19.8374 36.1593 20.2641C35.1779 20.6907 34.0686 20.9147 32.8313 20.9361ZM32.9593 18.0561C33.6206 18.0561 34.2499 17.9174 34.8473 17.6401C35.4659 17.3414 35.9993 16.9467 36.4473 16.4561C36.9166 15.9654 37.2899 15.4001 37.5673 14.7601C37.8446 14.0987 37.9833 13.4161 37.9833 12.7121C37.9833 11.5174 37.7806 10.5361 37.3753 9.76806C36.9913 8.97872 36.4579 8.40272 35.7753 8.04006C35.1139 7.65606 34.3459 7.46406 33.4713 7.46406C32.8313 7.46406 32.2126 7.63472 31.6153 7.97606C31.0393 8.29606 30.5273 8.73339 30.0793 9.28806C29.6526 9.84272 29.3113 10.4721 29.0553 11.1761C28.8206 11.8587 28.7033 12.5521 28.7033 13.2561C28.7033 14.1734 28.8739 15.0054 29.2153 15.7521C29.5779 16.4774 30.0793 17.0427 30.7193 17.4481C31.3593 17.8534 32.1059 18.0561 32.9593 18.0561ZM40.9593 20.9681C40.5966 20.9681 40.2979 20.9041 40.0633 20.7761C39.8499 20.6481 39.6899 20.5201 39.5833 20.3921C39.4766 20.2641 39.4233 20.2001 39.4233 20.2001C39.2739 18.6427 39.1566 17.0961 39.0713 15.5601C38.9859 14.0027 38.9646 12.4134 39.0073 10.7921C39.0499 9.17072 39.1459 7.49606 39.2953 5.76806C39.2953 5.76806 39.3379 5.70406 39.4233 5.57606C39.5086 5.44806 39.6579 5.33072 39.8713 5.22406C40.1059 5.09606 40.4259 5.04272 40.8313 5.06406C41.1939 5.08539 41.4713 5.18139 41.6633 5.35206C41.8766 5.52272 42.0259 5.72539 42.1113 5.96006C42.1966 6.17339 42.2393 6.36539 42.2393 6.53606C42.2606 6.68539 42.2713 6.76006 42.2713 6.76006C42.1859 7.84806 42.1113 8.89339 42.0473 9.89606C42.0046 10.8987 41.9833 11.9121 41.9833 12.9361C42.0046 13.9387 42.0366 14.9947 42.0793 16.1041C42.1219 17.2134 42.1753 18.4294 42.2393 19.7521C42.2393 19.7521 42.2286 19.8161 42.2073 19.9441C42.1859 20.0507 42.1326 20.1894 42.0473 20.3601C41.9833 20.5094 41.8553 20.6481 41.6633 20.7761C41.4926 20.9041 41.2579 20.9681 40.9593 20.9681Z" fill="#51A643"/>
<path d="M57.2073 20.3921C56.8446 20.2854 56.5673 20.1361 56.3753 19.9441C56.1833 19.7521 56.0553 19.5601 55.9913 19.3681C55.9273 19.1547 55.8846 18.9734 55.8633 18.8241C55.8633 18.6534 55.8633 18.5681 55.8633 18.5681C56.0979 16.7761 56.1833 15.1441 56.1193 13.6721C56.0766 12.1787 55.8206 11.0161 55.3513 10.1841C54.9246 9.39472 54.4233 8.82939 53.8473 8.48806C53.2713 8.12539 52.6739 7.96539 52.0553 8.00806C51.4366 8.02939 50.8179 8.23206 50.1993 8.61606C49.4739 9.08539 48.9086 9.66139 48.5033 10.3441C48.0979 11.0267 47.8099 11.7521 47.6393 12.5201C47.4899 13.2881 47.4046 14.0347 47.3833 14.7601C47.4046 15.4427 47.4153 16.0614 47.4153 16.6161C47.4153 17.1707 47.4259 17.6614 47.4473 18.0881C47.4686 18.5147 47.4899 18.8667 47.5113 19.1441C47.5113 19.1441 47.5006 19.1867 47.4793 19.2721C47.4793 19.3574 47.4579 19.4641 47.4153 19.5921C47.3726 19.7201 47.2766 19.8374 47.1273 19.9441C46.9993 20.0507 46.7859 20.1147 46.4873 20.1361C46.2313 20.1574 46.0073 20.1041 45.8153 19.9761C45.6233 19.8481 45.4633 19.7201 45.3353 19.5921C45.2286 19.4641 45.1753 19.4001 45.1753 19.4001C44.9406 19.0161 44.8126 18.6427 44.7913 18.2801C44.7913 17.9174 44.8019 17.5121 44.8233 17.0641C44.8659 16.6161 44.8339 16.0721 44.7273 15.4321C44.6846 14.6427 44.6633 13.9281 44.6633 13.2881C44.6846 12.6267 44.7379 12.0081 44.8233 11.4321C44.9086 10.8347 45.0473 10.2801 45.2393 9.76806C45.4313 9.25606 45.6979 8.75472 46.0393 8.26406C46.4659 7.70939 46.9886 7.20806 47.6073 6.76006C48.2259 6.31206 48.8979 5.94939 49.6233 5.67206C50.3699 5.39472 51.1379 5.23472 51.9273 5.19206C52.7166 5.14939 53.5059 5.25606 54.2953 5.51206C54.8286 5.74672 55.3406 6.05606 55.8313 6.44006C56.3433 6.80272 56.8126 7.24006 57.2393 7.75206C57.6659 8.26406 58.0393 8.87206 58.3593 9.57606C58.6793 10.2587 58.9459 11.0587 59.1593 11.9761C59.3726 13.1067 59.4686 14.2587 59.4473 15.4321C59.4259 16.6054 59.3086 17.8854 59.0953 19.2721C59.0953 19.2721 59.0739 19.3467 59.0313 19.4961C58.9886 19.6454 58.9033 19.8054 58.7753 19.9761C58.6686 20.1467 58.4873 20.2854 58.2313 20.3921C57.9753 20.4774 57.6339 20.4774 57.2073 20.3921ZM46.3593 20.9681C46.0606 20.9467 45.8046 20.8827 45.5913 20.7761C45.3993 20.6481 45.2393 20.5094 45.1113 20.3601C44.9833 20.1894 44.8873 20.0507 44.8233 19.9441C44.7806 19.8374 44.7593 19.7841 44.7593 19.7841C44.6313 18.6321 44.5353 17.5121 44.4713 16.4241C44.4286 15.3361 44.4073 14.2587 44.4073 13.1921C44.4073 12.1041 44.4393 10.9841 44.5033 9.83206C44.5673 8.68006 44.6526 7.46406 44.7593 6.18406C44.7593 6.18406 44.7699 6.13072 44.7913 6.02406C44.8126 5.89606 44.8659 5.75739 44.9513 5.60806C45.0579 5.45872 45.2073 5.33072 45.3993 5.22406C45.6126 5.09606 45.9006 5.04272 46.2633 5.06406C46.6259 5.06406 46.9139 5.13872 47.1273 5.28806C47.3406 5.43739 47.4899 5.61872 47.5753 5.83206C47.6819 6.02406 47.7459 6.19472 47.7673 6.34406C47.8099 6.49339 47.8313 6.56806 47.8313 6.56806C47.7673 7.63472 47.7139 8.68006 47.6713 9.70406C47.6286 10.7281 47.6073 11.7734 47.6073 12.8401C47.6073 13.9067 47.6179 15.0161 47.6393 16.1681C47.6819 17.2987 47.7459 18.4934 47.8313 19.7521C47.8313 19.7521 47.8206 19.8161 47.7993 19.9441C47.7779 20.0721 47.7139 20.2214 47.6073 20.3921C47.5219 20.5414 47.3833 20.6801 47.1913 20.8081C46.9993 20.9361 46.7219 20.9894 46.3593 20.9681Z" fill="#51A643"/>
<path d="M65.4255 21.0001C65.0842 21.0001 64.7962 20.9361 64.5615 20.8081C64.3268 20.6587 64.1455 20.4987 64.0175 20.3281C63.9108 20.1361 63.8255 19.9761 63.7615 19.8481C63.7188 19.7201 63.6975 19.6561 63.6975 19.6561C63.6122 18.7387 63.5375 17.6827 63.4735 16.4881C63.4095 15.2721 63.3668 14.0027 63.3455 12.6801C63.3455 11.3361 63.3562 9.99206 63.3775 8.64806C63.3988 7.30406 63.4415 6.00272 63.5055 4.74406C63.5695 3.48539 63.6442 2.33339 63.7295 1.28806C63.7295 1.28806 63.7402 1.23472 63.7615 1.12806C63.8042 1.00006 63.8788 0.86139 63.9855 0.712057C64.0922 0.562723 64.2415 0.434723 64.4335 0.328056C64.6468 0.22139 64.9242 0.18939 65.2655 0.232056C65.6495 0.25339 65.9375 0.338723 66.1295 0.488056C66.3428 0.63739 66.4922 0.808057 66.5775 1.00006C66.6842 1.19206 66.7482 1.36272 66.7695 1.51206C66.8122 1.66139 66.8335 1.73606 66.8335 1.73606C66.7695 2.56806 66.7162 3.56006 66.6735 4.71206C66.6522 5.86406 66.6308 7.10139 66.6095 8.42406C66.5882 9.72539 66.5775 11.0481 66.5775 12.3921C66.5775 13.7361 66.5988 15.0481 66.6415 16.3281C66.6842 17.5867 66.7375 18.7387 66.8015 19.7841C66.8015 19.7841 66.7802 19.8481 66.7375 19.9761C66.7162 20.0827 66.6628 20.2214 66.5775 20.3921C66.5135 20.5414 66.3855 20.6801 66.1935 20.8081C66.0015 20.9361 65.7455 21.0001 65.4255 21.0001ZM69.8095 8.23206C68.1242 8.21072 66.5242 8.18939 65.0095 8.16806C63.4948 8.12539 62.1508 8.09339 60.9775 8.07206C60.9775 8.07206 60.8922 8.06139 60.7215 8.04006C60.5722 8.01872 60.3908 7.96539 60.1775 7.88006C59.9642 7.79472 59.7722 7.67739 59.6015 7.52806C59.4308 7.35739 59.3348 7.12272 59.3135 6.82406C59.2922 6.56806 59.3242 6.36539 59.4095 6.21606C59.4948 6.06672 59.6122 5.96006 59.7615 5.89606C59.9108 5.81072 60.0282 5.75739 60.1135 5.73606C60.2202 5.69339 60.2735 5.67206 60.2735 5.67206C60.4442 5.65072 60.7642 5.62939 61.2335 5.60806C61.7028 5.58672 62.2682 5.57606 62.9295 5.57606C63.5908 5.55472 64.2948 5.54406 65.0415 5.54406C65.8095 5.52272 66.5775 5.51206 67.3455 5.51206C68.1135 5.51206 68.8388 5.51206 69.5215 5.51206C69.5215 5.51206 69.5748 5.52272 69.6815 5.54406C69.8095 5.56539 69.9588 5.60806 70.1295 5.67206C70.3002 5.71472 70.4708 5.78939 70.6415 5.89606C70.8122 6.00272 70.9508 6.14139 71.0575 6.31206C71.1642 6.48272 71.2175 6.70672 71.2175 6.98406C71.1962 7.30406 71.1108 7.56006 70.9615 7.75206C70.8122 7.92272 70.6522 8.04006 70.4815 8.10406C70.3108 8.16806 70.1508 8.21072 70.0015 8.23206C69.8735 8.23206 69.8095 8.23206 69.8095 8.23206Z" fill="#51A643"/>
<path d="M85.4885 20.3921C85.1258 20.2854 84.8485 20.1361 84.6565 19.9441C84.4645 19.7521 84.3365 19.5601 84.2725 19.3681C84.2085 19.1547 84.1658 18.9734 84.1445 18.8241C84.1445 18.6534 84.1445 18.5681 84.1445 18.5681C84.3792 16.7761 84.4645 15.1441 84.4005 13.6721C84.3578 12.1787 84.1018 11.0161 83.6325 10.1841C83.2058 9.39472 82.7045 8.82939 82.1285 8.48806C81.5525 8.12539 80.9552 7.96539 80.3365 8.00806C79.7178 8.02939 79.0992 8.23206 78.4805 8.61606C77.7552 9.08539 77.1898 9.66139 76.7845 10.3441C76.3792 11.0267 76.0912 11.7521 75.9205 12.5201C75.7712 13.2881 75.6858 14.0347 75.6645 14.7601C75.6858 15.4427 75.6965 16.0614 75.6965 16.6161C75.6965 17.1707 75.7072 17.6614 75.7285 18.0881C75.7498 18.5147 75.7712 18.8667 75.7925 19.1441C75.7925 19.1441 75.7818 19.1867 75.7605 19.2721C75.7605 19.3574 75.7392 19.4641 75.6965 19.5921C75.6538 19.7201 75.5578 19.8374 75.4085 19.9441C75.2805 20.0507 75.0672 20.1147 74.7685 20.1361C74.5125 20.1574 74.2885 20.1041 74.0965 19.9761C73.9045 19.8481 73.7445 19.7201 73.6165 19.5921C73.5098 19.4641 73.4565 19.4001 73.4565 19.4001C73.2218 19.0161 73.0938 18.6427 73.0725 18.2801C73.0725 17.9174 73.0832 17.5121 73.1045 17.0641C73.1472 16.6161 73.1152 16.0721 73.0085 15.4321C72.9658 14.6427 72.9445 13.9281 72.9445 13.2881C72.9658 12.6267 73.0192 12.0081 73.1045 11.4321C73.1898 10.8347 73.3285 10.2801 73.5205 9.76806C73.7125 9.25606 73.9792 8.75472 74.3205 8.26406C74.7472 7.70939 75.2698 7.20806 75.8885 6.76006C76.5072 6.31206 77.1792 5.94939 77.9045 5.67206C78.6512 5.39472 79.4192 5.23472 80.2085 5.19206C80.9978 5.14939 81.7872 5.25606 82.5765 5.51206C83.1098 5.74672 83.6218 6.05606 84.1125 6.44006C84.6245 6.80272 85.0938 7.24006 85.5205 7.75206C85.9472 8.26406 86.3205 8.87206 86.6405 9.57606C86.9605 10.2587 87.2272 11.0587 87.4405 11.9761C87.6538 13.1067 87.7498 14.2587 87.7285 15.4321C87.7072 16.6054 87.5898 17.8854 87.3765 19.2721C87.3765 19.2721 87.3552 19.3467 87.3125 19.4961C87.2698 19.6454 87.1845 19.8054 87.0565 19.9761C86.9498 20.1467 86.7685 20.2854 86.5125 20.3921C86.2565 20.4774 85.9152 20.4774 85.4885 20.3921ZM74.6405 20.9681C74.3418 20.9467 74.0858 20.8827 73.8725 20.7761C73.6805 20.6481 73.5205 20.5094 73.3925 20.3601C73.2645 20.1894 73.1685 20.0507 73.1045 19.9441C73.0618 19.8374 73.0405 19.7841 73.0405 19.7841C72.9125 18.6321 72.8165 17.5121 72.7525 16.4241C72.7098 15.3361 72.6885 14.2587 72.6885 13.1921C72.6885 12.1041 72.7205 10.9841 72.7845 9.83206C72.8485 8.68006 72.9338 7.46406 73.0405 6.18406C73.0405 6.18406 73.0512 6.13072 73.0725 6.02406C73.0938 5.89606 73.1472 5.75739 73.2325 5.60806C73.3392 5.45872 73.4885 5.33072 73.6805 5.22406C73.8938 5.09606 74.1818 5.04272 74.5445 5.06406C74.9072 5.06406 75.1952 5.13872 75.4085 5.28806C75.6218 5.43739 75.7712 5.61872 75.8565 5.83206C75.9632 6.02406 76.0272 6.19472 76.0485 6.34406C76.0912 6.49339 76.1125 6.56806 76.1125 6.56806C76.0485 7.63472 75.9952 8.68006 75.9525 9.70406C75.9098 10.7281 75.8885 11.7734 75.8885 12.8401C75.8885 13.9067 75.8992 15.0161 75.9205 16.1681C75.9632 17.2987 76.0272 18.4934 76.1125 19.7521C76.1125 19.7521 76.1018 19.8161 76.0805 19.9441C76.0592 20.0721 75.9952 20.2214 75.8885 20.3921C75.8032 20.5414 75.6645 20.6801 75.4725 20.8081C75.2805 20.9361 75.0032 20.9894 74.6405 20.9681Z" fill="#51A643"/>
<path d="M91.7655 20.9681C91.4668 20.9467 91.2108 20.8827 90.9975 20.7761C90.8055 20.6481 90.6455 20.5094 90.5175 20.3601C90.3895 20.1894 90.2935 20.0507 90.2295 19.9441C90.1868 19.8374 90.1655 19.7841 90.1655 19.7841C90.0375 18.6321 89.9415 17.5121 89.8775 16.4241C89.8348 15.3361 89.8135 14.2587 89.8135 13.1921C89.8135 12.1041 89.8455 10.9841 89.9095 9.83206C89.9735 8.68006 90.0588 7.46406 90.1655 6.18406C90.1655 6.18406 90.1762 6.13072 90.1975 6.02406C90.2188 5.89606 90.2722 5.75739 90.3575 5.60806C90.4642 5.45872 90.6135 5.33072 90.8055 5.22406C91.0188 5.09606 91.3068 5.04272 91.6695 5.06406C92.0322 5.06406 92.3202 5.13872 92.5335 5.28806C92.7468 5.43739 92.8962 5.61872 92.9815 5.83206C93.0882 6.02406 93.1522 6.19472 93.1735 6.34406C93.2162 6.49339 93.2375 6.56806 93.2375 6.56806C93.1735 7.63472 93.1202 8.68006 93.0775 9.70406C93.0348 10.7281 93.0135 11.7734 93.0135 12.8401C93.0135 13.9067 93.0242 15.0161 93.0455 16.1681C93.0882 17.2987 93.1522 18.4934 93.2375 19.7521C93.2375 19.7521 93.2268 19.8161 93.2055 19.9441C93.1842 20.0721 93.1202 20.2214 93.0135 20.3921C92.9282 20.5414 92.7895 20.6801 92.5975 20.8081C92.4055 20.9361 92.1282 20.9894 91.7655 20.9681ZM91.7975 3.56006C91.2215 3.56006 90.7735 3.38939 90.4535 3.04806C90.1548 2.70672 90.0055 2.29072 90.0055 1.80006C90.0055 1.18139 90.1548 0.73339 90.4535 0.456057C90.7735 0.15739 91.2215 0.00805664 91.7975 0.00805664C92.3735 0.00805664 92.8108 0.18939 93.1095 0.552055C93.4082 0.893389 93.5575 1.30939 93.5575 1.80006C93.5575 2.12006 93.5042 2.41872 93.3975 2.69606C93.3122 2.95206 93.1415 3.15472 92.8855 3.30406C92.6295 3.45339 92.2668 3.53872 91.7975 3.56006Z" fill="#51A643"/>
<path d="M108.097 20.2961C107.798 20.4027 107.51 20.4347 107.233 20.3921C106.977 20.3494 106.753 20.2641 106.561 20.1361C106.369 20.0081 106.22 19.9014 106.113 19.8161C106.006 19.7094 105.953 19.6561 105.953 19.6561C105.377 18.9521 104.833 18.3334 104.321 17.8001C103.83 17.2454 103.35 16.7654 102.881 16.3601C102.412 15.9547 101.953 15.6027 101.505 15.3041C101.078 14.9841 100.63 14.6961 100.161 14.4401C99.6917 14.1841 99.201 13.9387 98.689 13.7041L98.305 10.4081C99.521 10.3227 100.609 10.1201 101.569 9.80006C102.55 9.45872 103.425 9.02139 104.193 8.48806C104.961 7.95472 105.622 7.35739 106.177 6.69606C106.177 6.69606 106.22 6.65339 106.305 6.56806C106.412 6.48272 106.55 6.39739 106.721 6.31206C106.913 6.22672 107.116 6.18406 107.329 6.18406C107.564 6.16272 107.83 6.22672 108.129 6.37606C108.406 6.52539 108.588 6.71739 108.673 6.95206C108.78 7.16539 108.822 7.38939 108.801 7.62406C108.801 7.83739 108.78 8.01872 108.737 8.16806C108.694 8.31739 108.673 8.39206 108.673 8.39206C108.332 9.05339 107.873 9.65072 107.297 10.1841C106.742 10.7174 106.113 11.1867 105.409 11.5921C104.705 11.9974 103.958 12.3281 103.169 12.5841C102.38 12.8401 101.569 13.0214 100.737 13.1281L100.609 12.0401C101.505 12.2961 102.358 12.6694 103.169 13.1601C103.98 13.6294 104.726 14.1734 105.409 14.7921C106.113 15.3894 106.742 16.0294 107.297 16.7121C107.873 17.3947 108.385 18.0667 108.833 18.7281C108.833 18.7281 108.844 18.7921 108.865 18.9201C108.908 19.0267 108.918 19.1761 108.897 19.3681C108.897 19.5387 108.833 19.7094 108.705 19.8801C108.598 20.0507 108.396 20.1894 108.097 20.2961ZM98.081 21.0001C97.7397 21.0001 97.4517 20.9361 97.217 20.8081C96.9823 20.6587 96.801 20.4987 96.673 20.3281C96.545 20.1361 96.449 19.9761 96.385 19.8481C96.3423 19.7201 96.321 19.6561 96.321 19.6561C96.2357 18.7387 96.161 17.6827 96.097 16.4881C96.0543 15.2721 96.0223 14.0027 96.001 12.6801C96.001 11.3361 96.0117 9.99206 96.033 8.64806C96.0543 7.30406 96.097 6.00272 96.161 4.74406C96.225 3.48539 96.2997 2.33339 96.385 1.28806C96.385 1.28806 96.3957 1.23472 96.417 1.12806C96.4597 1.00006 96.5237 0.86139 96.609 0.712057C96.7157 0.562723 96.8757 0.434723 97.089 0.328056C97.3023 0.22139 97.5797 0.18939 97.921 0.232056C98.2837 0.25339 98.5717 0.338723 98.785 0.488056C98.9983 0.63739 99.1477 0.808057 99.233 1.00006C99.3397 1.19206 99.4037 1.36272 99.425 1.51206C99.4677 1.66139 99.489 1.73606 99.489 1.73606C99.425 2.56806 99.3717 3.56006 99.329 4.71206C99.2863 5.86406 99.2543 7.10139 99.233 8.42406C99.233 9.72539 99.233 11.0481 99.233 12.3921C99.233 13.7361 99.2437 15.0481 99.265 16.3281C99.3077 17.5867 99.361 18.7387 99.425 19.7841C99.425 19.7841 99.4143 19.8481 99.393 19.9761C99.3717 20.0827 99.3183 20.2214 99.233 20.3921C99.1477 20.5414 99.009 20.6801 98.817 20.8081C98.6463 20.9361 98.401 21.0001 98.081 21.0001Z" fill="#51A643"/>
</svg>
