<svg width="153" height="206" viewBox="0 0 153 206" fill="none" xmlns="http://www.w3.org/2000/svg">
<path d="M79.9997 143.268C68.6808 143.268 58.8007 141.446 50.3595 137.802C42.1101 133.966 35.2996 128.884 29.9279 122.555C24.5563 116.034 20.5275 108.554 17.8417 100.115C15.3477 91.6763 14.1007 82.6621 14.1007 73.0725C14.1007 62.524 15.7313 52.7426 18.9927 43.7284C22.4459 34.7142 27.2421 26.9467 33.3812 20.4258C39.5202 13.9049 46.9063 8.91829 55.5393 5.46604C64.1724 1.82201 73.6687 0 84.0284 0C93.8125 0.191789 102.829 1.82202 111.079 4.89068C119.52 7.95934 126.81 12.5623 132.949 18.6996C139.28 24.6452 144.172 32.125 147.625 41.1392C151.079 50.1534 152.805 60.702 152.805 72.7848C152.997 82.3744 151.079 91.4845 147.05 100.115C143.213 108.554 137.937 116.034 131.222 122.555C124.508 128.884 116.738 133.966 107.913 137.802C99.0883 141.446 89.7838 143.268 79.9997 143.268ZM18.705 205.121C15.4436 205.121 12.7577 204.545 10.6474 203.395C8.72898 202.244 7.19421 200.806 6.04314 199.079C4.89207 197.353 4.12468 195.915 3.74099 194.764C3.3573 193.613 3.16545 193.038 3.16545 193.038C2.39807 184.791 1.72661 174.626 1.15107 162.543C0.575538 150.652 0.191846 137.898 0 124.281C0 110.664 0 96.9505 0 83.1415C0.191846 69.3326 0.575538 56.2908 1.15107 44.0161C1.72661 31.5497 2.39807 20.7135 3.16545 11.5075C3.16545 11.5075 3.26138 11.028 3.45322 10.069C3.83691 8.91829 4.41245 7.67165 5.17983 6.32911C6.13906 4.79478 7.57791 3.54813 9.49636 2.58918C11.4148 1.63022 13.9088 1.24664 16.9783 1.43843C20.2397 1.82201 22.7337 2.68507 24.4603 4.02761C26.3788 5.37015 27.8176 6.90448 28.7769 8.6306C29.7361 10.3567 30.3116 11.8911 30.5035 13.2336C30.8872 14.5761 31.079 15.2474 31.079 15.2474C30.5035 22.9191 30.0239 32.5086 29.6402 44.0161C29.2565 55.3318 28.9687 67.7023 28.7769 81.1277C28.7769 94.5531 28.8728 108.17 29.0646 121.979C29.2565 135.596 29.4483 148.638 29.6402 161.105C30.0239 173.763 30.5035 184.791 31.079 194.189C31.079 194.189 30.9831 194.764 30.7912 195.915C30.5994 197.066 30.1198 198.312 29.3524 199.655C28.585 200.997 27.338 202.244 25.6114 203.395C23.8848 204.545 21.5826 205.121 18.705 205.121ZM77.6975 117.376C83.8366 117.376 89.6879 116.034 95.2514 113.349C100.815 110.472 105.707 106.732 109.928 102.129C114.148 97.5259 117.41 92.2516 119.712 86.3061C122.206 80.1688 123.453 73.9356 123.453 67.6064C123.453 56.8661 121.63 48.2355 117.985 41.7146C114.34 35.0019 109.448 30.1112 103.309 27.0426C97.3617 23.9739 90.8389 22.4396 83.7407 22.4396C77.7934 22.4396 72.134 23.878 66.7623 26.7549C61.5825 29.6318 56.8823 33.5635 52.6617 38.5501C48.6329 43.5366 45.3715 49.1945 42.8775 55.5236C40.5754 61.6609 39.4243 67.99 39.4243 74.5109C39.4243 82.5662 40.9591 89.8542 44.0286 96.3751C47.29 102.896 51.7983 108.074 57.5537 111.91C63.3091 115.554 70.0237 117.376 77.6975 117.376Z" fill="#51A643"/>
</svg>
