<svg width="1075" height="170" viewBox="0 0 1075 170" fill="none" xmlns="http://www.w3.org/2000/svg">
<path d="M25.024 166.976C19.904 166.635 15.808 165.525 12.736 163.648C9.83467 161.6 7.616 159.296 6.08 156.736C4.544 154.176 3.52 151.957 3.008 150.08C2.496 148.032 2.24 147.008 2.24 147.008C1.89867 142.059 1.55733 135.744 1.216 128.064C0.874665 120.384 0.618665 112.021 0.447998 102.976C0.447998 93.76 0.447998 84.288 0.447998 74.56C0.618665 64.832 0.874665 55.1893 1.216 45.632C1.55733 36.0747 2.06933 27.2 2.752 19.008C2.752 19.008 2.83733 18.24 3.008 16.704C3.17867 15.168 3.776 13.376 4.8 11.328C5.99467 9.28001 7.872 7.40268 10.432 5.69602C13.1627 3.81868 16.9173 2.53867 21.696 1.85601C42.688 0.149342 60.864 0.234679 76.224 2.11202C91.7547 3.98935 103.701 8.93868 112.064 16.96C120.427 24.8107 125.973 33.7707 128.704 43.84C131.435 53.7387 131.435 63.552 128.704 73.28C126.144 82.8373 120.853 91.2853 112.832 98.624C109.589 101.867 105.493 104.768 100.544 107.328C95.5947 109.717 90.048 111.68 83.904 113.216C77.9307 114.752 71.4453 115.691 64.448 116.032C57.6213 116.373 50.624 116.032 43.456 115.008L44.736 151.104C44.736 151.104 44.48 151.957 43.968 153.664C43.6267 155.371 42.7733 157.333 41.408 159.552C40.0427 161.6 38.08 163.392 35.52 164.928C32.96 166.464 29.4613 167.147 25.024 166.976ZM43.456 77.12C50.9653 77.632 57.3653 77.632 62.656 77.12C67.9467 76.4373 72.128 75.2427 75.2 73.536C78.4427 71.6587 80.7467 69.3547 82.112 66.624C83.648 63.8933 84.5013 60.8213 84.672 57.408C84.672 52.6294 83.648 48.704 81.6 45.632C79.7227 42.3893 76.992 40 73.408 38.464C69.9947 36.928 65.8133 35.9893 60.864 35.648C56.0853 35.3067 50.7093 35.392 44.736 35.904C44.224 42.9013 43.7973 49.8987 43.456 56.896C43.2853 63.7227 43.2853 70.464 43.456 77.12Z" fill="#51A643"/>
<path d="M172.65 167.488C167.018 167.829 162.41 167.232 158.826 165.696C155.242 163.989 152.511 161.856 150.634 159.296C148.757 156.565 147.391 153.749 146.538 150.848C145.855 147.947 145.429 145.387 145.258 143.168C144.746 133.269 144.319 124.395 143.978 116.544C143.637 108.523 143.295 100.928 142.954 93.76C142.783 86.4213 142.698 79.0827 142.698 71.744C142.869 64.2347 143.125 56.2133 143.466 47.68C143.978 38.976 144.661 29.1627 145.514 18.24C145.514 18.24 145.599 17.3867 145.77 15.68C146.111 13.8027 146.965 11.7547 148.33 9.53601C149.695 7.14668 151.829 5.18401 154.73 3.64801C157.631 1.94135 161.813 1.25868 167.274 1.60001C172.223 1.94135 176.149 3.22135 179.05 5.44001C181.951 7.48801 183.999 9.79201 185.194 12.352C186.559 14.7413 187.413 16.96 187.754 19.008C188.095 20.8853 188.266 21.824 188.266 21.824C187.925 42.816 187.498 62.1867 186.986 79.936C186.645 97.5147 186.815 113.984 187.498 129.344C194.154 128.491 200.127 127.723 205.418 127.04C210.709 126.187 215.914 125.248 221.034 124.224C226.325 123.029 232.127 121.835 238.442 120.64C238.442 120.64 239.21 120.64 240.746 120.64C242.282 120.469 244.245 120.555 246.634 120.896C249.023 121.067 251.498 121.579 254.058 122.432C256.618 123.115 258.922 124.309 260.97 126.016C263.018 127.723 264.469 130.112 265.322 133.184C266.517 137.621 266.773 141.376 266.09 144.448C265.407 147.52 264.298 149.995 262.762 151.872C261.397 153.749 260.117 155.115 258.922 155.968C257.727 156.821 257.13 157.248 257.13 157.248C248.767 158.784 241.087 160.235 234.09 161.6C227.093 162.965 220.266 164.16 213.61 165.184C207.125 166.037 200.554 166.72 193.898 167.232C187.413 167.573 180.33 167.659 172.65 167.488Z" fill="#51A643"/>
<path d="M300.47 168.256C294.838 167.403 290.486 165.781 287.414 163.392C284.342 161.003 282.123 158.443 280.758 155.712C279.393 152.811 278.625 150.336 278.454 148.288C278.283 146.24 278.198 145.216 278.198 145.216C278.71 131.733 280.673 117.995 284.086 104C287.499 89.8347 291.425 75.584 295.862 61.248C301.153 47.2533 306.017 36.416 310.454 28.736C315.062 20.8853 319.329 15.168 323.254 11.584C327.35 8.00001 331.275 5.78135 335.03 4.92801C338.785 3.90402 342.625 3.39202 346.55 3.39202C349.451 2.88001 352.865 3.47734 356.79 5.18401C360.715 6.89067 364.726 9.62134 368.822 13.376C373.089 16.96 377.014 21.4827 380.598 26.944C384.182 32.2347 386.913 38.3787 388.79 45.376C390.497 50.1547 392.545 56.384 394.934 64.064C397.323 71.5733 399.713 80.1067 402.102 89.664C404.662 99.0507 406.966 109.12 409.014 119.872C411.062 130.453 412.598 141.291 413.622 152.384C413.622 152.384 413.537 153.237 413.366 154.944C413.195 156.48 412.513 158.443 411.318 160.832C410.294 163.051 408.417 165.013 405.686 166.72C403.126 168.256 399.371 169.024 394.422 169.024C389.473 169.024 385.377 168.171 382.134 166.464C378.891 164.587 376.331 162.368 374.454 159.808C372.747 157.248 371.553 155.115 370.87 153.408C370.187 151.531 369.846 150.592 369.846 150.592C367.627 139.669 365.835 130.112 364.47 121.92C363.105 113.728 361.739 107.072 360.374 101.952C357.985 92.3947 355.766 84.1173 353.718 77.12C351.67 70.1227 349.537 63.4667 347.318 57.152C345.953 60.9067 344.331 65.2587 342.454 70.208C340.577 74.9867 338.699 79.936 336.822 85.056C335.115 90.0053 333.75 94.6133 332.726 98.88C331.361 105.707 330.166 111.339 329.142 115.776C328.118 120.043 327.35 123.883 326.838 127.296C326.326 130.709 325.814 134.464 325.302 138.56C324.79 142.485 324.193 147.691 323.51 154.176C323.51 154.176 323.254 155.029 322.742 156.736C322.23 158.272 321.206 160.064 319.67 162.112C318.134 164.16 315.83 165.867 312.758 167.232C309.686 168.597 305.59 168.939 300.47 168.256ZM305.334 145.472L308.918 115.264C316.939 113.387 324.705 111.936 332.214 110.912C339.894 109.717 347.659 109.035 355.51 108.864C363.531 108.693 372.065 109.035 381.11 109.888L384.95 145.216C378.977 144.192 372.491 143.339 365.494 142.656C358.497 141.973 351.329 141.632 343.99 141.632C336.822 141.461 329.91 141.717 323.254 142.4C316.598 142.912 310.625 143.936 305.334 145.472Z" fill="#51A643"/>
<path d="M449.018 166.976C444.41 166.635 440.655 165.611 437.754 163.904C434.853 162.027 432.549 159.979 430.842 157.76C429.306 155.371 428.282 153.323 427.77 151.616C427.258 149.909 427.002 149.056 427.002 149.056C425.978 139.84 425.295 130.368 424.954 120.64C424.783 110.741 424.698 100.843 424.698 90.944C424.698 81.0453 424.869 71.232 425.21 61.504C425.722 51.776 426.149 42.2187 426.49 32.832C426.49 32.832 426.661 31.808 427.002 29.76C427.514 27.712 428.709 25.4933 430.586 23.104C432.634 20.544 435.962 18.5813 440.57 17.216C443.13 16.3627 445.861 16.192 448.762 16.704C451.834 17.216 454.479 17.8987 456.698 18.752C458.917 19.6054 460.111 20.2027 460.282 20.544C466.085 25.152 472.399 31.1253 479.226 38.464C486.223 45.632 493.562 53.7387 501.242 62.784C509.093 71.8293 517.114 81.3867 525.306 91.456C525.306 86.1653 525.221 80.8747 525.05 75.584C524.879 70.1227 524.794 64.4053 524.794 58.432C524.965 52.4587 525.221 45.9733 525.562 38.976C525.903 31.9787 526.415 24.128 527.098 15.424C527.098 15.424 527.269 14.7413 527.61 13.376C528.122 11.84 528.975 10.2187 530.17 8.51201C531.365 6.63468 533.242 5.01335 535.802 3.64801C538.533 2.28268 542.202 1.68534 546.81 1.85601C551.759 2.02668 555.685 2.96535 558.586 4.67202C561.658 6.37868 563.962 8.51201 565.498 11.072C567.205 13.632 568.399 16.192 569.082 18.752C569.765 21.1414 570.106 23.1894 570.106 24.896C570.106 26.6027 570.106 27.456 570.106 27.456C569.423 34.2827 568.911 41.6213 568.57 49.472C568.229 57.152 567.973 65.1733 567.802 73.536C567.802 81.8987 567.802 90.3467 567.802 98.88C567.973 107.413 568.143 116.032 568.314 124.736C568.655 133.44 569.082 141.973 569.594 150.336C569.594 150.336 569.509 151.104 569.338 152.64C569.167 154.005 568.57 155.712 567.546 157.76C566.522 159.808 564.901 161.685 562.682 163.392C560.634 165.099 557.647 166.293 553.722 166.976C549.114 167.659 545.103 167.147 541.69 165.44C538.277 163.563 535.631 161.6 533.754 159.552C531.877 157.504 530.938 156.48 530.938 156.48C530.938 156.48 529.999 155.541 528.122 153.664C526.415 151.787 524.111 149.227 521.21 145.984C518.479 142.571 515.237 138.731 511.482 134.464C507.727 130.197 503.802 125.76 499.706 121.152C495.781 116.544 491.77 112.021 487.674 107.584C483.749 102.976 480.079 98.7093 476.666 94.784C473.253 90.688 470.351 87.104 467.962 84.032C467.791 90.176 467.706 96.4053 467.706 102.72C467.877 109.035 468.047 116.032 468.218 123.712C468.389 131.392 468.73 140.352 469.242 150.592C469.242 150.592 469.071 151.445 468.73 153.152C468.389 154.859 467.535 156.907 466.17 159.296C464.975 161.515 463.013 163.477 460.282 165.184C457.551 166.72 453.797 167.317 449.018 166.976Z" fill="#51A643"/>
<path d="M651.068 166.976C646.119 166.976 642.193 166.037 639.292 164.16C636.391 162.112 634.172 159.808 632.636 157.248C631.1 154.688 630.076 152.469 629.564 150.592C629.052 148.544 628.796 147.52 628.796 147.52C627.772 138.304 627.004 128.576 626.492 118.336C626.151 108.096 625.98 97.6 625.98 86.848C626.151 76.096 626.492 65.344 627.004 54.592C627.516 43.84 628.284 33.2587 629.308 22.848C629.308 22.848 629.479 22.08 629.82 20.544C630.161 18.8373 630.844 16.96 631.868 14.912C633.063 12.864 634.94 11.072 637.5 9.53601C640.231 8.00001 643.985 7.23201 648.764 7.23201C654.908 7.40268 659.601 8.51201 662.844 10.56C666.087 12.4373 668.305 14.7413 669.5 17.472C670.865 20.032 671.633 22.336 671.804 24.384C671.975 26.432 672.06 27.456 672.06 27.456C671.377 34.4533 670.865 41.9627 670.524 49.984C670.183 57.8347 669.927 66.0267 669.756 74.56C669.756 82.9227 669.756 91.456 669.756 100.16C669.927 108.864 670.183 117.568 670.524 126.272C670.865 134.805 671.207 142.997 671.548 150.848C671.548 150.848 671.377 151.701 671.036 153.408C670.865 154.944 670.183 156.821 668.988 159.04C667.793 161.259 665.745 163.221 662.844 164.928C660.113 166.464 656.188 167.147 651.068 166.976ZM701.756 41.536C694.929 40.8533 687.335 40.3413 678.972 40C670.78 39.488 662.332 39.1467 653.628 38.976C644.924 38.6347 636.476 38.464 628.284 38.464C620.092 38.464 612.753 38.5493 606.268 38.72C606.268 38.72 605.5 38.72 603.964 38.72C602.599 38.5493 600.721 38.2933 598.332 37.952C596.113 37.44 593.809 36.672 591.42 35.648C589.201 34.4533 587.153 32.832 585.276 30.784C583.569 28.736 582.545 26.0907 582.204 22.848C581.692 19.4347 581.948 16.6187 582.972 14.4C584.167 12.1813 585.703 10.4747 587.58 9.28002C589.628 7.91468 591.591 6.97601 593.468 6.46401C595.516 5.95201 597.223 5.61068 598.588 5.44001C600.124 5.26934 600.892 5.18401 600.892 5.18401C616.764 3.30668 632.636 2.02668 648.508 1.34401C664.38 0.490681 680.081 1.08801 695.612 3.13601C695.612 3.13601 696.38 3.39201 697.916 3.90401C699.623 4.24534 701.585 4.92801 703.804 5.95201C706.193 6.80535 708.497 8.08535 710.716 9.79201C713.105 11.328 715.068 13.376 716.604 15.936C718.311 18.496 719.164 21.568 719.164 25.152C719.164 29.248 718.225 32.4907 716.348 34.88C714.641 37.0987 712.593 38.72 710.204 39.744C707.985 40.5973 706.023 41.1093 704.316 41.28C702.609 41.4507 701.756 41.536 701.756 41.536Z" fill="#51A643"/>
<path d="M752.268 166.976C747.66 166.635 743.905 165.611 741.004 163.904C738.103 162.027 735.799 159.979 734.092 157.76C732.556 155.371 731.532 153.323 731.02 151.616C730.508 149.909 730.252 149.056 730.252 149.056C729.228 139.84 728.545 130.368 728.204 120.64C728.033 110.741 727.948 100.843 727.948 90.944C727.948 81.0453 728.119 71.232 728.46 61.504C728.972 51.776 729.399 42.2187 729.74 32.832C729.74 32.832 729.911 31.808 730.252 29.76C730.764 27.712 731.959 25.4933 733.836 23.104C735.884 20.544 739.212 18.5813 743.82 17.216C746.38 16.3627 749.111 16.192 752.012 16.704C755.084 17.216 757.729 17.8987 759.948 18.752C762.167 19.6054 763.361 20.2027 763.532 20.544C769.335 25.152 775.649 31.1253 782.476 38.464C789.473 45.632 796.812 53.7387 804.492 62.784C812.343 71.8293 820.364 81.3867 828.556 91.456C828.556 86.1653 828.471 80.8747 828.3 75.584C828.129 70.1227 828.044 64.4053 828.044 58.432C828.215 52.4587 828.471 45.9733 828.812 38.976C829.153 31.9787 829.665 24.128 830.348 15.424C830.348 15.424 830.519 14.7413 830.86 13.376C831.372 11.84 832.225 10.2187 833.42 8.51201C834.615 6.63468 836.492 5.01335 839.052 3.64801C841.783 2.28268 845.452 1.68534 850.06 1.85601C855.009 2.02668 858.935 2.96535 861.836 4.67202C864.908 6.37868 867.212 8.51201 868.748 11.072C870.455 13.632 871.649 16.192 872.332 18.752C873.015 21.1414 873.356 23.1894 873.356 24.896C873.356 26.6027 873.356 27.456 873.356 27.456C872.673 34.2827 872.161 41.6213 871.82 49.472C871.479 57.152 871.223 65.1733 871.052 73.536C871.052 81.8987 871.052 90.3467 871.052 98.88C871.223 107.413 871.393 116.032 871.564 124.736C871.905 133.44 872.332 141.973 872.844 150.336C872.844 150.336 872.759 151.104 872.588 152.64C872.417 154.005 871.82 155.712 870.796 157.76C869.772 159.808 868.151 161.685 865.932 163.392C863.884 165.099 860.897 166.293 856.972 166.976C852.364 167.659 848.353 167.147 844.94 165.44C841.527 163.563 838.881 161.6 837.004 159.552C835.127 157.504 834.188 156.48 834.188 156.48C834.188 156.48 833.249 155.541 831.372 153.664C829.665 151.787 827.361 149.227 824.46 145.984C821.729 142.571 818.487 138.731 814.732 134.464C810.977 130.197 807.052 125.76 802.956 121.152C799.031 116.544 795.02 112.021 790.924 107.584C786.999 102.976 783.329 98.7093 779.916 94.784C776.503 90.688 773.601 87.104 771.212 84.032C771.041 90.176 770.956 96.4053 770.956 102.72C771.127 109.035 771.297 116.032 771.468 123.712C771.639 131.392 771.98 140.352 772.492 150.592C772.492 150.592 772.321 151.445 771.98 153.152C771.639 154.859 770.785 156.907 769.42 159.296C768.225 161.515 766.263 163.477 763.532 165.184C760.801 166.72 757.047 167.317 752.268 166.976Z" fill="#51A643"/>
<path d="M912.53 166.976C907.751 166.976 903.826 166.037 900.754 164.16C897.853 162.112 895.634 159.808 894.098 157.248C892.562 154.688 891.538 152.469 891.026 150.592C890.514 148.544 890.258 147.52 890.258 147.52C889.575 140.181 888.978 132.331 888.466 123.968C888.125 115.435 887.869 106.645 887.698 97.6C887.698 88.5547 887.783 79.424 887.954 70.208C888.125 60.992 888.466 51.9467 888.978 43.072C889.49 34.0267 890.087 25.408 890.77 17.216C890.77 17.216 890.941 16.448 891.282 14.912C891.623 13.2053 892.391 11.328 893.586 9.28002C894.781 7.23201 896.658 5.44001 899.218 3.90401C901.949 2.36801 905.618 1.60001 910.226 1.60001C915.346 1.77067 919.442 2.70934 922.514 4.416C925.586 5.952 927.89 8.00001 929.426 10.56C930.962 13.12 931.986 15.68 932.498 18.24C933.181 20.6293 933.522 22.6773 933.522 24.384C933.522 26.0907 933.522 26.944 933.522 26.944C932.839 33.9413 932.327 41.4507 931.986 49.472C931.645 57.3227 931.389 65.5147 931.218 74.048C931.218 82.5813 931.218 91.2853 931.218 100.16C931.389 108.864 931.645 117.568 931.986 126.272C932.327 134.805 932.669 142.997 933.01 150.848C933.01 150.848 932.839 151.701 932.498 153.408C932.327 154.944 931.645 156.821 930.45 159.04C929.255 161.259 927.207 163.221 924.306 164.928C921.575 166.464 917.65 167.147 912.53 166.976Z" fill="#51A643"/>
<path d="M1053.16 168C1048.73 169.024 1044.8 168.939 1041.39 167.744C1037.97 166.549 1035.07 165.013 1032.68 163.136C1030.47 161.259 1028.76 159.552 1027.56 158.016C1026.37 156.48 1025.77 155.712 1025.77 155.712C1021.33 147.008 1017.07 140.181 1012.97 135.232C1009.05 130.112 1005.04 126.187 1000.94 123.456C997.015 120.555 992.833 118.165 988.396 116.288C983.959 114.411 978.924 112.363 973.292 110.144L974.06 69.696C984.983 66.112 993.943 62.016 1000.94 57.408C1008.11 52.6294 1013.91 47.68 1018.35 42.56C1022.79 37.2693 1026.2 32.2347 1028.59 27.456C1031.15 22.6773 1033.03 18.496 1034.22 14.912C1034.22 14.912 1034.56 14.2293 1035.24 12.864C1036.1 11.328 1037.38 9.70668 1039.08 8.00002C1040.96 6.29334 1043.44 5.01334 1046.51 4.16001C1049.58 3.13601 1053.42 3.13601 1058.03 4.16001C1062.98 5.18401 1066.65 7.06135 1069.04 9.79201C1071.6 12.5227 1073.13 15.3387 1073.64 18.24C1074.33 21.1413 1074.58 23.7013 1074.41 25.92C1074.24 27.968 1074.16 28.992 1074.16 28.992C1073.64 35.648 1072.02 42.048 1069.29 48.192C1066.73 54.336 1063.57 59.968 1059.82 65.088C1056.07 70.208 1052.05 74.816 1047.79 78.912C1043.52 82.8373 1039.43 86.1653 1035.5 88.896C1031.75 91.6267 1028.5 93.504 1025.77 94.528C1033.11 98.9653 1039.6 104.512 1045.23 111.168C1050.86 117.653 1055.64 124.224 1059.56 130.88C1063.49 137.536 1066.31 143.083 1068.01 147.52C1068.01 147.52 1068.1 148.373 1068.27 150.08C1068.61 151.787 1068.52 153.92 1068.01 156.48C1067.5 158.869 1066.13 161.173 1063.92 163.392C1061.7 165.611 1058.11 167.147 1053.16 168ZM973.036 166.976C968.087 166.976 964.076 166.037 961.004 164.16C958.103 162.112 955.884 159.808 954.348 157.248C952.812 154.688 951.788 152.469 951.276 150.592C950.764 148.544 950.508 147.52 950.508 147.52C949.825 140.181 949.228 132.331 948.716 123.968C948.375 115.435 948.119 106.645 947.948 97.6C947.948 88.5547 948.033 79.424 948.204 70.208C948.375 60.992 948.716 51.9467 949.228 43.072C949.74 34.0267 950.337 25.408 951.02 17.216C951.02 17.216 951.191 16.3627 951.532 14.656C951.873 12.9493 952.641 11.1573 953.836 9.28002C955.031 7.23201 956.908 5.44001 959.468 3.90401C962.199 2.36801 965.868 1.60001 970.476 1.60001C975.596 1.60001 979.692 2.45334 982.764 4.16001C985.836 5.86667 988.14 8.00001 989.676 10.56C991.212 13.12 992.236 15.68 992.748 18.24C993.431 20.6293 993.772 22.6773 993.772 24.384C993.772 26.0907 993.772 26.944 993.772 26.944C993.089 33.9413 992.577 41.4507 992.236 49.472C991.895 57.3227 991.639 65.5147 991.468 74.048C991.468 82.5813 991.468 91.2853 991.468 100.16C991.639 108.864 991.895 117.568 992.236 126.272C992.577 134.805 992.919 142.997 993.26 150.848C993.26 150.848 993.089 151.701 992.748 153.408C992.577 154.944 991.895 156.821 990.7 159.04C989.505 161.259 987.457 163.221 984.556 164.928C981.825 166.464 977.985 167.147 973.036 166.976Z" fill="#51A643"/>
</svg>
