<svg width="82" height="24" viewBox="0 0 82 24" fill="none" xmlns="http://www.w3.org/2000/svg">
<g clip-path="url(#clip0_150_10)">
<path d="M78 0.5H51C49.067 0.5 47.5 2.067 47.5 4V20C47.5 21.933 49.067 23.5 51 23.5H78C79.933 23.5 81.5 21.933 81.5 20V4C81.5 2.067 79.933 0.5 78 0.5Z" fill="white" stroke="#D9D9D9"/>
<path fill-rule="evenodd" clip-rule="evenodd" d="M57.6253 16.2582H55.5049L53.9149 10.1924C53.8395 9.91334 53.6793 9.66667 53.4435 9.5504C52.8553 9.25823 52.2071 9.0257 51.5 8.90843V8.6749H54.9157C55.3871 8.6749 55.7406 9.0257 55.7996 9.43313L56.6245 13.8086L58.7438 8.6749H60.8052L57.6253 16.2582ZM61.9838 16.2582H59.9813L61.6302 8.6749H63.6327L61.9838 16.2582ZM66.2234 10.7757C66.2823 10.3673 66.6359 10.1337 67.0483 10.1337C67.6965 10.0751 68.4026 10.1924 68.9919 10.4835L69.3454 8.85081C68.7562 8.61727 68.108 8.5 67.5198 8.5C65.5762 8.5 64.162 9.55041 64.162 11.0082C64.162 12.1173 65.1637 12.6996 65.8708 13.0504C66.6359 13.4002 66.9305 13.6338 66.8716 13.9835C66.8716 14.5082 66.2823 14.7418 65.6941 14.7418C64.9869 14.7418 64.2798 14.5669 63.6327 14.2747L63.2791 15.9085C63.9862 16.1996 64.7512 16.3169 65.4584 16.3169C67.6376 16.3745 68.9919 15.3251 68.9919 13.75C68.9919 11.7665 66.2234 11.6502 66.2234 10.7757ZM76 16.2582L74.41 8.6749H72.7022C72.3486 8.6749 71.9951 8.90843 71.8772 9.25823L68.9329 16.2582H70.9943L71.4058 15.1502H73.9386L74.1743 16.2582H76ZM72.9968 10.7171L73.585 13.5751H71.9361L72.9968 10.7171Z" fill="#172B85"/>
</g>
<g clip-path="url(#clip1_150_10)">
<path d="M31 0.5H4C2.067 0.5 0.5 2.067 0.5 4V20C0.5 21.933 2.067 23.5 4 23.5H31C32.933 23.5 34.5 21.933 34.5 20V4C34.5 2.067 32.933 0.5 31 0.5Z" fill="white" stroke="#D9D9D9"/>
<path fill-rule="evenodd" clip-rule="evenodd" d="M17.75 17.1569C16.5584 18.1852 15.0128 18.806 13.3238 18.806C9.55511 18.806 6.5 15.7154 6.5 11.903C6.5 8.09057 9.55511 5 13.3238 5C15.0128 5 16.5584 5.62075 17.75 6.64903C18.9416 5.62075 20.4872 5 22.1762 5C25.9449 5 29 8.09057 29 11.903C29 15.7154 25.9449 18.806 22.1762 18.806C20.4872 18.806 18.9416 18.1852 17.75 17.1569Z" fill="#ED0006"/>
<path fill-rule="evenodd" clip-rule="evenodd" d="M17.75 17.1569C19.2172 15.8908 20.1475 14.0068 20.1475 11.903C20.1475 9.79917 19.2172 7.91517 17.75 6.64903C18.9416 5.62075 20.4872 5 22.1762 5C25.9449 5 29 8.09057 29 11.903C29 15.7154 25.9449 18.806 22.1762 18.806C20.4872 18.806 18.9416 18.1852 17.75 17.1569Z" fill="#F9A000"/>
<path fill-rule="evenodd" clip-rule="evenodd" d="M17.75 6.64906C19.2172 7.9152 20.1476 9.79919 20.1476 11.903C20.1476 14.0068 19.2172 15.8908 17.75 17.1569C16.2829 15.8908 15.3525 14.0068 15.3525 11.903C15.3525 9.79919 16.2829 7.9152 17.75 6.64906Z" fill="#FF5E00"/>
</g>
<defs>
<clipPath id="clip0_150_10">
<rect width="35" height="24" fill="white" transform="translate(47)"/>
</clipPath>
<clipPath id="clip1_150_10">
<rect width="35" height="24" fill="white"/>
</clipPath>
</defs>
</svg>
