<svg width="35" height="24" viewBox="0 0 35 24" fill="none" xmlns="http://www.w3.org/2000/svg">
<rect x="0.5" y="0.5" width="34" height="23" rx="3.5" fill="white" stroke="#D9D9D9"/>
<path d="M14.6667 6H12.6667C12.2985 6 12 6.29848 12 6.66667V8.66667C12 9.03486 12.2985 9.33333 12.6667 9.33333H14.6667C15.0349 9.33333 15.3333 9.03486 15.3333 8.66667V6.66667C15.3333 6.29848 15.0349 6 14.6667 6Z" stroke="black" stroke-width="1.33333" stroke-linecap="round" stroke-linejoin="round"/>
<path d="M23.3332 6H21.3332C20.965 6 20.6665 6.29848 20.6665 6.66667V8.66667C20.6665 9.03486 20.965 9.33333 21.3332 9.33333H23.3332C23.7014 9.33333 23.9998 9.03486 23.9998 8.66667V6.66667C23.9998 6.29848 23.7014 6 23.3332 6Z" stroke="black" stroke-width="1.33333" stroke-linecap="round" stroke-linejoin="round"/>
<path d="M14.6667 14.6667H12.6667C12.2985 14.6667 12 14.9651 12 15.3333V17.3333C12 17.7015 12.2985 18 12.6667 18H14.6667C15.0349 18 15.3333 17.7015 15.3333 17.3333V15.3333C15.3333 14.9651 15.0349 14.6667 14.6667 14.6667Z" stroke="black" stroke-width="1.33333" stroke-linecap="round" stroke-linejoin="round"/>
<path d="M23.9998 14.6667H21.9998C21.6462 14.6667 21.3071 14.8071 21.057 15.0572C20.807 15.3072 20.6665 15.6464 20.6665 16V18" stroke="black" stroke-width="1.33333" stroke-linecap="round" stroke-linejoin="round"/>
<path d="M24 18V18.0067" stroke="black" stroke-width="1.33333" stroke-linecap="round" stroke-linejoin="round"/>
<path d="M17.9998 8.66666V10.6667C17.9998 11.0203 17.8594 11.3594 17.6093 11.6095C17.3593 11.8595 17.0201 12 16.6665 12H14.6665" stroke="black" stroke-width="1.33333" stroke-linecap="round" stroke-linejoin="round"/>
<path d="M12 12H12.0067" stroke="black" stroke-width="1.33333" stroke-linecap="round" stroke-linejoin="round"/>
<path d="M18 6H18.0067" stroke="black" stroke-width="1.33333" stroke-linecap="round" stroke-linejoin="round"/>
<path d="M18 14.6667V14.6733" stroke="black" stroke-width="1.33333" stroke-linecap="round" stroke-linejoin="round"/>
<path d="M20.6665 12H21.3332" stroke="black" stroke-width="1.33333" stroke-linecap="round" stroke-linejoin="round"/>
<path d="M24 12V12.0067" stroke="black" stroke-width="1.33333" stroke-linecap="round" stroke-linejoin="round"/>
<path d="M18 18V17.3333" stroke="black" stroke-width="1.33333" stroke-linecap="round" stroke-linejoin="round"/>
</svg>
